<svg xmlns="http://www.w3.org/2000/svg" viewBox="0 0 1920 579"><style>.ui-stroke{opacity:.5;enable-background:new}.ui-stroke,.ui-stroke-fill{fill:none;stroke:#fff;stroke-width:1.5}</style><g><g opacity=".15" transform="translate(-118 26)"><path id="Stroke-1" class="ui-stroke" d="M170 683.89c134.03 3.09 265.67-32.14 398.63-43.68 53.41-4.64 106.72-6.82 159.06 6.64 43.65 11.23 85.16 29.61 127.67 44.34 41.16 14.25 80.74 21.32 124.25 21.8 52.11.58 104.18-14.36 154.67-27.24 108.42-27.65 216.07-63.56 328.85-62.73 137.88 1.01 268.78 58.17 406.87 59.19"/><path id="Stroke-3" class="ui-stroke" d="M159 653.9c139.78 4.79 276.79-38.17 415.23-50.98 54.14-5.01 107.8-7.33 160.08 9.68 46.13 15.01 88.16 39.83 132.17 59.78 42.13 19.1 83.58 30.09 129.96 30.6 52.44.57 104.85-16.1 154.94-31.09 110.32-33.02 221.7-79.17 338.44-76.81 143.99 2.92 281.12 59.31 425.18 63.72"/><path id="Stroke-5" class="ui-stroke" d="M142 632.05c140.97 7.23 277.53-47.97 416.37-63.75 59.82-6.8 118.38-6.57 176.25 11.38 49.34 15.3 95.65 38.81 143.46 58.1 47.22 19.05 93.82 30.18 144.71 31.17 53.41 1.04 107-16.34 157.76-32.13 111.22-34.6 222.01-77.8 340.24-72.36 144.92 6.67 275.75 87.3 421.2 93.47"/><path id="Stroke-7" class="ui-stroke" d="M112 619.51c144.71 7.22 281.75-62.48 423.19-82.09 61.39-8.51 121.8-6.65 181.86 8.89 55.13 14.26 107.89 36.02 161.89 53.79 53.13 17.48 105.58 28.17 161.64 28.04 54.15-.12 107.21-17.08 158.3-34 106.88-35.4 216.54-78.92 331.41-68.6C1682.68 539.22 1808.79 647.82 1962 661"/><path id="Stroke-9" class="ui-stroke" d="M88 602.41c147.62 8.81 284.44-76.54 427.73-99.16 128.56-20.29 246.39 25.57 367.94 60.26 59.02 16.84 117.5 27.66 178.96 26.8 54.82-.77 107.73-17.84 159.04-36.33 103.35-37.24 211.48-79.95 323.56-66.43C1703.35 506.63 1820.89 644.12 1980 663"/><path id="Stroke-11" class="ui-stroke" d="M90 574.15c147.87 11.27 287.44-70.44 431.39-91.46 134.28-19.61 262.38 29.48 390.38 62.67 60.26 15.63 122.88 28.49 185.46 25.99 57.62-2.3 111.73-18.69 165.89-37.94 109.13-38.78 229.87-88.98 348.22-70.43C1766.7 487.32 1868.22 641.87 2025 665"/><path id="Stroke-13" class="ui-stroke" d="M90 532.85c148.8 14.99 295.98-46.23 442.86-60.76 137.83-13.63 270.09 27.49 403.44 55.95 64.77 13.82 131.58 25.29 198.05 21.99 63.05-3.13 123.35-22.74 182.95-42.86 63.21-21.33 125.99-43.24 190.58-60.1 61.8-16.14 133.41-33.72 197.27-20.33C1855.4 458.25 1933.39 634.58 2085 663"/><path id="Stroke-15" class="ui-stroke-fill" d="M88 484.65c151.06 21.23 305.86-18.45 457.05-23.61 142.22-4.85 279.87 25.21 419.6 46.73 68.64 10.57 137.03 16.99 206.47 13.89 60.16-2.68 118.95-25.43 175.31-45.82 58.8-21.28 117.26-43.4 177.36-60.83 62.36-18.09 130.97-37.32 196.09-23.07 79.98 17.51 144.88 76.35 206.31 126.79C1991.05 572 2058.99 631.27 2143 650"/><path id="Stroke-17" class="ui-stroke" d="M89 466.32c152.14 16.75 307.9-8.96 460.25-13.79 144.03-4.56 285.34 17.18 428.3 30.93 70.67 6.8 140.84 10.1 211.68 4.81 58.46-4.36 114.65-24.62 169.87-43.85 114.1-39.75 240.62-98.14 363.84-78.51C1892.17 392.89 1984.63 582.25 2155 609"/><path id="Stroke-19" class="ui-stroke-fill" d="M94 462.55c155.79 14.77 314.92-22.32 470.23-32.42 140.74-9.15 275.81 16.37 414.71 34.31 68.25 8.81 136.51 12.95 205.14 6.8 58.58-5.25 115.5-27.86 170.83-47.25 57.79-20.26 115.57-40.78 174.55-57.38 61.03-17.18 122.76-33.48 186.58-23.62 77.79 12.02 140.49 68.14 199.03 116.56C1978.46 511.98 2045.22 571.22 2129 585"/><path id="Stroke-21" class="ui-stroke" d="M97 447.19c83.06 7.61 167.38-4.7 249.61-15.58 81.38-10.77 162.59-22.98 244.43-29.83 70.01-5.86 139.48-5.88 209.15 3.51 62.4 8.41 123.95 21.83 186.18 31.29 61.67 9.38 125.82 14.76 187.84 5.51 57.23-8.53 111.91-29.36 166.5-48.16 58.52-20.15 117.26-39.81 176.94-56.29 58.7-16.21 121.17-35.11 182.75-26.46 75.34 10.59 135.21 64.88 190.66 112.5 61.81 53.08 126.7 114.09 209.92 128.33"/><path id="Stroke-23" class="ui-stroke" d="M100 434.13c84.25 6.8 169.77-8.6 252.68-22.03 86.18-13.96 172.1-30.03 258.96-39.35 67.17-7.2 134.44-9.69 201.42.24 60.39 8.96 119.21 25.42 179.19 36.46 55.78 10.27 114.54 15.02 170.72 5.09 55.68-9.83 109.19-30.34 162.78-48.02 55.67-18.37 111.81-35.43 168.54-50.25 58.2-15.21 118.99-33.36 179.82-26.97 75.76 7.96 136.37 62.07 192.25 108.83 61.07 51.1 124.98 108.68 206.63 120.86"/><path id="Stroke-25" class="ui-stroke" d="M78 427.96c84.47 3.76 169.57-14.9 251.99-31.17 86.36-17.05 172.42-36.36 259.62-48.76 67.95-9.66 135.23-13.73 203.19-2.48 61.17 10.12 120.25 29.12 180.82 41.94 56.14 11.88 115.81 17.53 172.6 6.69 55.95-10.67 109.47-33.75 162.63-53.7 55.46-20.81 111.34-40.66 168-57.99 57.73-17.67 118.79-38.73 180.07-33.74 76.03 6.19 137.29 60.74 193.28 107.25 60.91 50.6 125.16 108.75 206.8 119"/><path id="Stroke-27" class="ui-stroke" d="M44 419.8c84.49 2.44 169.28-16.43 251.65-33.12 85.75-17.38 171.19-36.82 257.77-49.71 69.43-10.33 137.31-14.98 206.7-2.39 62.04 11.25 121.78 31.66 183.15 45.73 58.24 13.35 121.14 20.68 180.18 7.99 59.3-12.74 115.2-41.44 169.62-67.36 56.18-26.75 112.29-53.87 169.85-77.57 60.44-24.89 128.1-54.76 195.06-48.53 77.55 7.22 141.51 62.34 199.82 108.87 64.14 51.18 133.07 112.24 218.2 120.29"/><path id="Stroke-29" class="ui-stroke-fill" d="M13 408.91c83.42 1.56 166.85-17.06 248.11-33.81 84.31-17.37 168.32-36.58 253.43-49.79 70.62-10.96 138.98-16.51 209.56-2.82 64.63 12.54 126.59 35.07 190.43 50.74 60.5 14.85 125.62 23.16 187.12 9.33 62.46-14.05 121.21-49.64 176.27-80.95 58.64-33.35 116.57-68.07 176.7-98.72 60.04-30.61 129.11-66.31 198.5-62.63 83.95 4.45 154.71 64.15 218.42 112.95 67.77 51.92 141.53 115.64 230.46 121.67"/><path id="Stroke-31" class="ui-stroke" d="M0 392c82.3.31 165.7-21.66 245.41-39.84 80.73-18.42 161.18-38.35 242.68-53.18 72.85-13.26 141.4-19.72 214.48-4.48 66.16 13.8 129.36 38.02 194.59 55.25 61.17 16.15 128.9 27.28 191.55 12.82 65.26-15.06 125.09-53.14 180.89-88.66 62.19-39.58 122.71-81.84 186.5-118.86 59.5-34.53 129.05-72.6 200.12-68.77 85.32 4.6 158.38 65.49 223.52 114.61 70.07 52.83 148.36 120.85 240.26 124.8"/></g></g></svg>